<svg width="41" height="40" viewBox="0 0 41 40" fill="none" xmlns="http://www.w3.org/2000/svg">
<path d="M20.4144 29.9997C21.0123 29.9997 21.5177 29.7983 21.9306 29.3955C22.3434 28.9927 22.5498 28.4997 22.5498 27.9163C22.5498 27.333 22.3434 26.84 21.9306 26.4372C21.5177 26.0344 21.0123 25.833 20.4144 25.833C19.8165 25.833 19.3111 26.0344 18.8983 26.4372C18.4854 26.84 18.279 27.333 18.279 27.9163C18.279 28.4997 18.4854 28.9927 18.8983 29.3955C19.3111 29.7983 19.8165 29.9997 20.4144 29.9997ZM18.8769 23.583H22.0373C22.0373 22.6663 22.1441 21.9441 22.3576 21.4163C22.5712 20.8886 23.1762 20.1663 24.1728 19.2497C24.913 18.5275 25.4967 17.84 25.9238 17.1872C26.3509 16.5344 26.5644 15.7497 26.5644 14.833C26.5644 13.2775 25.9807 12.083 24.8134 11.2497C23.646 10.4163 22.2651 9.99967 20.6707 9.99967C19.0478 9.99967 17.7309 10.4163 16.7201 11.2497C15.7094 12.083 15.0047 13.083 14.6061 14.2497L17.4248 15.333C17.5672 14.833 17.8875 14.2913 18.3858 13.708C18.884 13.1247 19.6457 12.833 20.6707 12.833C21.5818 12.833 22.2651 13.0761 22.7207 13.5622C23.1762 14.0483 23.404 14.583 23.404 15.1663C23.404 15.7219 23.2332 16.2427 22.8915 16.7288C22.5498 17.215 22.1228 17.6663 21.6103 18.083C20.3575 19.1663 19.5887 19.9858 19.304 20.5413C19.0193 21.0969 18.8769 22.1108 18.8769 23.583ZM20.4998 36.6663C18.1366 36.6663 15.9158 36.2288 13.8373 35.3538C11.7589 34.4788 9.95088 33.2913 8.41338 31.7913C6.87588 30.2913 5.65869 28.5275 4.76182 26.4997C3.86494 24.4719 3.4165 22.3052 3.4165 19.9997C3.4165 17.6941 3.86494 15.5275 4.76182 13.4997C5.65869 11.4719 6.87588 9.70801 8.41338 8.20801C9.95088 6.70801 11.7589 5.52051 13.8373 4.64551C15.9158 3.77051 18.1366 3.33301 20.4998 3.33301C22.863 3.33301 25.0839 3.77051 27.1623 4.64551C29.2408 5.52051 31.0488 6.70801 32.5863 8.20801C34.1238 9.70801 35.341 11.4719 36.2379 13.4997C37.1347 15.5275 37.5832 17.6941 37.5832 19.9997C37.5832 22.3052 37.1347 24.4719 36.2379 26.4997C35.341 28.5275 34.1238 30.2913 32.5863 31.7913C31.0488 33.2913 29.2408 34.4788 27.1623 35.3538C25.0839 36.2288 22.863 36.6663 20.4998 36.6663ZM20.4998 33.333C24.3151 33.333 27.5467 32.0413 30.1946 29.458C32.8425 26.8747 34.1665 23.7219 34.1665 19.9997C34.1665 16.2775 32.8425 13.1247 30.1946 10.5413C27.5467 7.95801 24.3151 6.66634 20.4998 6.66634C16.6846 6.66634 13.453 7.95801 10.805 10.5413C8.15713 13.1247 6.83317 16.2775 6.83317 19.9997C6.83317 23.7219 8.15713 26.8747 10.805 29.458C13.453 32.0413 16.6846 33.333 20.4998 33.333Z"/>
</svg>
